<svg xmlns="http://www.w3.org/2000/svg" viewBox="0 0 100 100">
    <circle cx="50" cy="50" r="45" fill="#FFB5C2" />
    
    <polygon points="25,35 30,10 45,25" fill="#4A4A4A" />
    <polygon points="75,35 70,10 55,25" fill="#4A4A4A" />
    
    <circle cx="50" cy="55" r="30" fill="#FFF" />
    <circle cx="40" cy="50" r="4" fill="#4A4A4A" />
    <circle cx="60" cy="50" r="4" fill="#4A4A4A" />
    <path d="M 45 58 Q 50 62 55 58" fill="none" stroke="#4A4A4A" stroke-width="2"/>
    <polygon points="48,55 52,55 50,57" fill="#FFB5C2" />
    
    <path d="M 15 55 A 35 35 0 0 1 85 55" fill="none" stroke="#8B6F47" stroke-width="6" />
    <rect x="10" y="45" width="15" height="25" rx="8" fill="#8B6F47" />
    <rect x="75" y="45" width="15" height="25" rx="8" fill="#8B6F47" />
    
    <rect x="42" y="70" width="16" height="15" rx="3" fill="#B5EAD7" />
    <path d="M 58 73 C 65 73 65 82 58 82" fill="none" stroke="#B5EAD7" stroke-width="3" />
    <path d="M 45 68 Q 47 63 50 68 T 55 68" fill="none" stroke="#FFF" stroke-width="2" />
</svg>

